<svg width="1038" height="984" viewBox="0 0 1038 984" fill="none" xmlns="http://www.w3.org/2000/svg">
<g filter="url(#filter0_dddddd_455_1094)">
<path d="M462.603 490C461.679 490 460.825 489.776 460.041 489.328C459.285 488.88 458.683 488.278 458.235 487.522C457.787 486.738 457.563 485.884 457.563 484.96V483.784H460.965V484.96C460.965 485.408 461.119 485.8 461.427 486.136C461.763 486.444 462.155 486.598 462.603 486.598H482.763C483.211 486.598 483.589 486.444 483.897 486.136C484.233 485.8 484.401 485.408 484.401 484.96V478.198C484.401 477.75 484.233 477.372 483.897 477.064C483.589 476.756 483.211 476.602 482.763 476.602H462.603C461.679 476.602 460.825 476.378 460.041 475.93C459.285 475.454 458.683 474.838 458.235 474.082C457.787 473.326 457.563 472.486 457.563 471.562V464.8C457.563 463.876 457.787 463.036 458.235 462.28C458.683 461.496 459.285 460.88 460.041 460.432C460.825 459.984 461.679 459.76 462.603 459.76H482.763C483.687 459.76 484.527 459.984 485.283 460.432C486.067 460.88 486.683 461.496 487.131 462.28C487.579 463.036 487.803 463.876 487.803 464.8V465.976H484.401V464.8C484.401 464.352 484.233 463.974 483.897 463.666C483.589 463.33 483.211 463.162 482.763 463.162H462.603C462.155 463.162 461.763 463.33 461.427 463.666C461.119 463.974 460.965 464.352 460.965 464.8V471.562C460.965 472.01 461.119 472.388 461.427 472.696C461.763 473.004 462.155 473.158 462.603 473.158H482.763C483.687 473.158 484.527 473.396 485.283 473.872C486.067 474.32 486.683 474.922 487.131 475.678C487.579 476.434 487.803 477.274 487.803 478.198V484.96C487.803 485.884 487.579 486.738 487.131 487.522C486.683 488.278 486.067 488.88 485.283 489.328C484.527 489.776 483.687 490 482.763 490H462.603ZM498.944 490C497.992 490 497.124 489.776 496.34 489.328C495.584 488.852 494.982 488.236 494.534 487.48C494.086 486.696 493.862 485.842 493.862 484.918V457.66H497.306V465.64H507.848V469.084H497.306V484.918C497.306 485.366 497.46 485.758 497.768 486.094C498.104 486.402 498.496 486.556 498.944 486.556H507.848V490H498.944ZM517.809 490C516.885 490 516.031 489.776 515.247 489.328C514.491 488.852 513.875 488.236 513.399 487.48C512.951 486.696 512.727 485.842 512.727 484.918V476.098H534.063V470.722C534.063 470.274 533.895 469.896 533.559 469.588C533.251 469.252 532.873 469.084 532.425 469.084H512.727V465.64H532.425C533.377 465.64 534.231 465.878 534.987 466.354C535.771 466.802 536.387 467.418 536.835 468.202C537.311 468.958 537.549 469.798 537.549 470.722V490H517.809ZM517.809 486.556H534.063V479.542H516.171V484.918C516.171 485.366 516.325 485.758 516.633 486.094C516.969 486.402 517.361 486.556 517.809 486.556ZM543.364 490V470.722C543.364 469.798 543.588 468.958 544.036 468.202C544.512 467.418 545.128 466.802 545.884 466.354C546.668 465.878 547.522 465.64 548.446 465.64H562.138V469.084H548.446C547.998 469.084 547.606 469.252 547.27 469.588C546.962 469.896 546.808 470.274 546.808 470.722V490H543.364ZM571.66 490C570.708 490 569.84 489.776 569.056 489.328C568.3 488.852 567.698 488.236 567.25 487.48C566.802 486.696 566.578 485.842 566.578 484.918V457.66H570.022V465.64H580.564V469.084H570.022V484.918C570.022 485.366 570.176 485.758 570.484 486.094C570.82 486.402 571.212 486.556 571.66 486.556H580.564V490H571.66Z" fill="white"/>
<path d="M527.5 525L518.5 516L509.5 525" stroke="#FE8606" stroke-width="2.7" stroke-linecap="round" stroke-linejoin="round"/>
</g>
<defs>
<filter id="filter0_dddddd_455_1094" x="-2.38" y="-10.38" width="1041.76" height="994.11" filterUnits="userSpaceOnUse" color-interpolation-filters="sRGB">
<feFlood flood-opacity="0" result="BackgroundImageFix"/>
<feColorMatrix in="SourceAlpha" type="matrix" values="0 0 0 0 0 0 0 0 0 0 0 0 0 0 0 0 0 0 127 0" result="hardAlpha"/>
<feOffset/>
<feGaussianBlur stdDeviation="5.445"/>
<feColorMatrix type="matrix" values="0 0 0 0 0.996078 0 0 0 0 0.52549 0 0 0 0 0.0235294 0 0 0 1 0"/>
<feBlend mode="normal" in2="BackgroundImageFix" result="effect1_dropShadow_455_1094"/>
<feColorMatrix in="SourceAlpha" type="matrix" values="0 0 0 0 0 0 0 0 0 0 0 0 0 0 0 0 0 0 127 0" result="hardAlpha"/>
<feOffset/>
<feGaussianBlur stdDeviation="10.89"/>
<feColorMatrix type="matrix" values="0 0 0 0 0.996078 0 0 0 0 0.52549 0 0 0 0 0.0235294 0 0 0 1 0"/>
<feBlend mode="normal" in2="effect1_dropShadow_455_1094" result="effect2_dropShadow_455_1094"/>
<feColorMatrix in="SourceAlpha" type="matrix" values="0 0 0 0 0 0 0 0 0 0 0 0 0 0 0 0 0 0 127 0" result="hardAlpha"/>
<feOffset/>
<feGaussianBlur stdDeviation="38.115"/>
<feColorMatrix type="matrix" values="0 0 0 0 0.996078 0 0 0 0 0.52549 0 0 0 0 0.0235294 0 0 0 1 0"/>
<feBlend mode="normal" in2="effect2_dropShadow_455_1094" result="effect3_dropShadow_455_1094"/>
<feColorMatrix in="SourceAlpha" type="matrix" values="0 0 0 0 0 0 0 0 0 0 0 0 0 0 0 0 0 0 127 0" result="hardAlpha"/>
<feOffset/>
<feGaussianBlur stdDeviation="76.23"/>
<feColorMatrix type="matrix" values="0 0 0 0 0.996078 0 0 0 0 0.52549 0 0 0 0 0.0235294 0 0 0 1 0"/>
<feBlend mode="normal" in2="effect3_dropShadow_455_1094" result="effect4_dropShadow_455_1094"/>
<feColorMatrix in="SourceAlpha" type="matrix" values="0 0 0 0 0 0 0 0 0 0 0 0 0 0 0 0 0 0 127 0" result="hardAlpha"/>
<feOffset/>
<feGaussianBlur stdDeviation="130.68"/>
<feColorMatrix type="matrix" values="0 0 0 0 0.996078 0 0 0 0 0.52549 0 0 0 0 0.0235294 0 0 0 1 0"/>
<feBlend mode="normal" in2="effect4_dropShadow_455_1094" result="effect5_dropShadow_455_1094"/>
<feColorMatrix in="SourceAlpha" type="matrix" values="0 0 0 0 0 0 0 0 0 0 0 0 0 0 0 0 0 0 127 0" result="hardAlpha"/>
<feOffset/>
<feGaussianBlur stdDeviation="228.69"/>
<feColorMatrix type="matrix" values="0 0 0 0 0.996078 0 0 0 0 0.52549 0 0 0 0 0.0235294 0 0 0 1 0"/>
<feBlend mode="normal" in2="effect5_dropShadow_455_1094" result="effect6_dropShadow_455_1094"/>
<feBlend mode="normal" in="SourceGraphic" in2="effect6_dropShadow_455_1094" result="shape"/>
</filter>
</defs>
</svg>
