<svg width="440" height="36" viewBox="0 0 440 36" fill="none" xmlns="http://www.w3.org/2000/svg">
<path d="M24.9324 36V1.44H56.4684V5.328H28.8204V16.752H51.0444V20.688H28.8204V32.112H56.4684V36H24.9324ZM61.1064 36V35.952L72.7224 21.792L61.1064 8.208V8.16H66.2904L75.3144 18.672L84.3384 8.16H89.5224V8.208L77.9064 21.792L89.5704 35.952V36H84.3864L75.3144 24.816L66.2904 36H61.1064ZM94.7248 36V8.16H117.285C118.341 8.16 119.301 8.432 120.165 8.976C121.061 9.488 121.765 10.192 122.277 11.088C122.821 11.952 123.093 12.912 123.093 13.968V20.208C123.093 21.264 122.821 22.24 122.277 23.136C121.765 24 121.061 24.704 120.165 25.248C119.301 25.76 118.341 26.016 117.285 26.016H98.6608V36H94.7248ZM100.581 22.08H117.285C117.797 22.08 118.229 21.904 118.581 21.552C118.965 21.168 119.157 20.72 119.157 20.208V13.968C119.157 13.456 118.965 13.024 118.581 12.672C118.229 12.288 117.797 12.096 117.285 12.096H100.581C100.069 12.096 99.6208 12.288 99.2368 12.672C98.8528 13.024 98.6608 13.456 98.6608 13.968V20.208C98.6608 20.72 98.8528 21.168 99.2368 21.552C99.6208 21.904 100.069 22.08 100.581 22.08ZM126.412 36V8.16H130.348V32.064H155.26V36H126.412ZM163.717 36C162.661 36 161.685 35.744 160.789 35.232C159.925 34.688 159.221 33.984 158.677 33.12C158.165 32.224 157.909 31.248 157.909 30.192V13.968C157.909 12.912 158.165 11.952 158.677 11.088C159.221 10.192 159.925 9.488 160.789 8.976C161.685 8.432 162.661 8.16 163.717 8.16H180.421C181.509 8.16 182.485 8.432 183.349 8.976C184.245 9.488 184.949 10.192 185.461 11.088C186.005 11.952 186.277 12.912 186.277 13.968V30.192C186.277 31.248 186.005 32.224 185.461 33.12C184.949 33.984 184.245 34.688 183.349 35.232C182.485 35.744 181.509 36 180.421 36H163.717ZM163.717 32.064H180.421C180.933 32.064 181.365 31.888 181.717 31.536C182.101 31.152 182.293 30.704 182.293 30.192V13.968C182.293 13.456 182.101 13.024 181.717 12.672C181.365 12.288 180.933 12.096 180.421 12.096H163.717C163.205 12.096 162.757 12.288 162.373 12.672C162.021 13.024 161.845 13.456 161.845 13.968V30.192C161.845 30.704 162.021 31.152 162.373 31.536C162.757 31.888 163.205 32.064 163.717 32.064ZM191.287 36V8.16H213.799C214.887 8.16 215.863 8.432 216.727 8.976C217.623 9.488 218.327 10.192 218.839 11.088C219.351 11.952 219.607 12.912 219.607 13.968V20.208C219.607 21.264 219.351 22.24 218.839 23.136C218.327 24 217.623 24.704 216.727 25.248C215.863 25.76 214.887 26.016 213.799 26.016H208.663L219.751 35.952V36H214.711L203.767 26.016H195.223V36H191.287ZM197.095 22.08H213.799C214.311 22.08 214.743 21.904 215.095 21.552C215.479 21.168 215.671 20.72 215.671 20.208V13.968C215.671 13.456 215.479 13.024 215.095 12.672C214.743 12.288 214.311 12.096 213.799 12.096H197.095C196.583 12.096 196.135 12.288 195.751 12.672C195.399 13.024 195.223 13.456 195.223 13.968V20.208C195.223 20.72 195.399 21.168 195.751 21.552C196.135 21.904 196.583 22.08 197.095 22.08ZM224.897 36V8.112H250.193V12.048H228.833V20.112H244.721V24.048H228.833V32.064H250.193V36H224.897ZM268.776 36V1.44H297.576C298.632 1.44 299.592 1.696 300.456 2.208C301.352 2.72 302.056 3.424 302.568 4.32C303.08 5.184 303.336 6.144 303.336 7.2V30.24C303.336 31.296 303.08 32.272 302.568 33.168C302.056 34.032 301.352 34.72 300.456 35.232C299.592 35.744 298.632 36 297.576 36H268.776ZM274.536 32.112H297.576C298.088 32.112 298.52 31.936 298.872 31.584C299.256 31.2 299.448 30.752 299.448 30.24V7.2C299.448 6.688 299.256 6.256 298.872 5.904C298.52 5.52 298.088 5.328 297.576 5.328H274.536C274.024 5.328 273.576 5.52 273.192 5.904C272.84 6.256 272.664 6.688 272.664 7.2V30.24C272.664 30.752 272.84 31.2 273.192 31.584C273.576 31.936 274.024 32.112 274.536 32.112ZM308.807 36V7.2C308.807 6.144 309.063 5.184 309.575 4.32C310.087 3.424 310.775 2.72 311.639 2.208C312.535 1.696 313.511 1.44 314.567 1.44H337.607C338.663 1.44 339.623 1.696 340.487 2.208C341.383 2.72 342.087 3.424 342.599 4.32C343.111 5.184 343.367 6.144 343.367 7.2V36H339.479V23.376H312.695V36H308.807ZM312.695 19.488H339.479V7.2C339.479 6.688 339.287 6.256 338.903 5.904C338.551 5.52 338.119 5.328 337.607 5.328H314.567C314.055 5.328 313.607 5.52 313.223 5.904C312.871 6.256 312.695 6.688 312.695 7.2V19.488ZM354.5 36C353.444 36 352.468 35.744 351.572 35.232C350.708 34.72 350.02 34.032 349.508 33.168C348.996 32.272 348.74 31.296 348.74 30.24V7.2C348.74 6.144 348.996 5.184 349.508 4.32C350.02 3.424 350.708 2.72 351.572 2.208C352.468 1.696 353.444 1.44 354.5 1.44H377.54C378.596 1.44 379.556 1.696 380.42 2.208C381.316 2.72 382.02 3.424 382.532 4.32C383.044 5.184 383.3 6.144 383.3 7.2V30.24C383.3 31.296 383.044 32.272 382.532 33.168C382.02 34.032 381.316 34.72 380.42 35.232C379.556 35.744 378.596 36 377.54 36H354.5ZM354.5 32.112H377.54C378.052 32.112 378.484 31.936 378.836 31.584C379.22 31.2 379.412 30.752 379.412 30.24V7.2C379.412 6.688 379.22 6.256 378.836 5.904C378.484 5.52 378.052 5.328 377.54 5.328H354.5C353.988 5.328 353.54 5.52 353.156 5.904C352.804 6.256 352.628 6.688 352.628 7.2V30.24C352.628 30.752 352.804 31.2 353.156 31.584C353.54 31.936 353.988 32.112 354.5 32.112ZM394.058 36C393.002 36 392.026 35.744 391.13 35.232C390.266 34.688 389.562 33.984 389.018 33.12C388.506 32.224 388.25 31.248 388.25 30.192V29.328H392.186V30.192C392.186 30.704 392.362 31.152 392.714 31.536C393.098 31.888 393.546 32.064 394.058 32.064H410.762C411.274 32.064 411.706 31.888 412.058 31.536C412.442 31.152 412.634 30.704 412.634 30.192V25.92C412.634 25.408 412.442 24.976 412.058 24.624C411.706 24.24 411.274 24.048 410.762 24.048H394.058C393.002 24.048 392.026 23.792 391.13 23.28C390.266 22.736 389.562 22.032 389.018 21.168C388.506 20.272 388.25 19.296 388.25 18.24V13.968C388.25 12.912 388.506 11.952 389.018 11.088C389.562 10.192 390.266 9.488 391.13 8.976C392.026 8.432 393.002 8.16 394.058 8.16H410.762C411.85 8.16 412.826 8.432 413.69 8.976C414.586 9.488 415.29 10.192 415.802 11.088C416.346 11.952 416.618 12.912 416.618 13.968V14.832H412.634V13.968C412.634 13.456 412.442 13.024 412.058 12.672C411.706 12.288 411.274 12.096 410.762 12.096H394.058C393.546 12.096 393.098 12.288 392.714 12.672C392.362 13.024 392.186 13.456 392.186 13.968V18.24C392.186 18.752 392.362 19.2 392.714 19.584C393.098 19.936 393.546 20.112 394.058 20.112H410.762C411.85 20.112 412.826 20.384 413.69 20.928C414.586 21.44 415.29 22.144 415.802 23.04C416.346 23.904 416.618 24.864 416.618 25.92V30.192C416.618 31.248 416.346 32.224 415.802 33.12C415.29 33.984 414.586 34.688 413.69 35.232C412.826 35.744 411.85 36 410.762 36H394.058Z" fill="url(#paint0_linear_455_1246)"/>
<defs>
<linearGradient id="paint0_linear_455_1246" x1="220.5" y1="-34" x2="220.5" y2="70" gradientUnits="userSpaceOnUse">
<stop offset="0.205" stop-color="white"/>
<stop offset="1" stop-color="white" stop-opacity="0.1"/>
</linearGradient>
</defs>
</svg>
