<svg width="19" height="21" viewBox="0 0 19 21" fill="none" xmlns="http://www.w3.org/2000/svg">
<mask id="path-1-inside-1_455_1230" fill="white">
<path fill-rule="evenodd" clip-rule="evenodd" d="M1.1875 0C0.531662 0 0 0.531662 0 1.1875V3.56226H19V1.1875C19 0.531662 18.4683 0 17.8125 0H1.1875ZM18.7415 5.93726H0.258466C0.394248 6.204 0.580701 6.44561 0.811052 6.64717L7.93605 12.8815C8.83149 13.6651 10.1685 13.6651 11.0639 12.8815L18.1889 6.64717C18.4193 6.44561 18.6058 6.204 18.7415 5.93726Z"/>
</mask>
<path fill-rule="evenodd" clip-rule="evenodd" d="M1.1875 0C0.531662 0 0 0.531662 0 1.1875V3.56226H19V1.1875C19 0.531662 18.4683 0 17.8125 0H1.1875ZM18.7415 5.93726H0.258466C0.394248 6.204 0.580701 6.44561 0.811052 6.64717L7.93605 12.8815C8.83149 13.6651 10.1685 13.6651 11.0639 12.8815L18.1889 6.64717C18.4193 6.44561 18.6058 6.204 18.7415 5.93726Z" fill="white"/>
<path d="M0 3.56226H-1V4.56226H0V3.56226ZM19 3.56226V4.56226H20V3.56226H19ZM18.7415 5.93726L19.6327 6.3909L20.3727 4.93726H18.7415V5.93726ZM0.258466 5.93726V4.93726H-1.37268L-0.632716 6.3909L0.258466 5.93726ZM0.811052 6.64717L0.152547 7.39975L0.152547 7.39975L0.811052 6.64717ZM7.93605 12.8815L7.27755 13.6341L7.27755 13.6341L7.93605 12.8815ZM11.0639 12.8815L11.7225 13.6341L11.7225 13.6341L11.0639 12.8815ZM18.1889 6.64717L17.5304 5.89459L17.5304 5.89459L18.1889 6.64717ZM1 1.1875C1 1.08395 1.08395 1 1.1875 1V-1C-0.0206228 -1 -1 -0.020623 -1 1.1875H1ZM1 3.56226V1.1875H-1V3.56226H1ZM0 4.56226H19V2.56226H0V4.56226ZM18 1.1875V3.56226H20V1.1875H18ZM17.8125 1C17.9161 1 18 1.08395 18 1.1875H20C20 -0.0206229 19.0206 -1 17.8125 -1V1ZM1.1875 1H17.8125V-1H1.1875V1ZM18.7415 4.93726H0.258466V6.93726H18.7415V4.93726ZM1.46956 5.89459C1.33617 5.77788 1.22827 5.63807 1.14965 5.48361L-0.632716 6.3909C-0.439774 6.76994 -0.174765 7.11335 0.152547 7.39975L1.46956 5.89459ZM8.59456 12.129L1.46956 5.89459L0.152547 7.39975L7.27755 13.6341L8.59456 12.129ZM10.4054 12.129C9.88703 12.5826 9.11297 12.5826 8.59456 12.129L7.27755 13.6341C8.55001 14.7475 10.45 14.7475 11.7225 13.6341L10.4054 12.129ZM17.5304 5.89459L10.4054 12.129L11.7225 13.6341L18.8475 7.39975L17.5304 5.89459ZM17.8504 5.48361C17.7717 5.63806 17.6638 5.77788 17.5304 5.89459L18.8475 7.39975C19.1748 7.11335 19.4398 6.76994 19.6327 6.3909L17.8504 5.48361Z" fill="white" mask="url(#path-1-inside-1_455_1230)"/>
<path fill-rule="evenodd" clip-rule="evenodd" d="M11.875 17.4621L11.875 9.5H7.125V19.8371L11.875 17.4621Z" fill="white"/>
<path d="M11.875 9.5L12.375 9.5L12.375 9H11.875V9.5ZM11.875 17.4621L12.0986 17.9093L12.375 17.7711L12.375 17.4621L11.875 17.4621ZM7.125 9.5V9H6.625V9.5H7.125ZM7.125 19.8371H6.625V20.6461L7.34861 20.2843L7.125 19.8371ZM11.375 9.5L11.375 17.4621L12.375 17.4621L12.375 9.5L11.375 9.5ZM7.125 10H11.875V9H7.125V10ZM7.625 19.8371V9.5H6.625V19.8371H7.625ZM7.34861 20.2843L12.0986 17.9093L11.6514 17.0149L6.90139 19.3899L7.34861 20.2843Z" fill="white"/>
</svg>
