<svg width="21" height="38" viewBox="0 0 21 38" fill="none" xmlns="http://www.w3.org/2000/svg">
<path d="M4.8226 24.8604V23.5775C4.8226 22.8851 4.98551 22.264 5.31133 21.7142C5.65751 21.144 6.10551 20.696 6.65533 20.3702C7.22551 20.0444 7.8466 19.8815 8.5186 19.8815H16.8881C17.2139 19.8815 17.4888 19.7695 17.7128 19.5455C17.9571 19.3011 18.0793 19.016 18.0793 18.6902V12.7644C18.0793 12.4385 17.9571 12.1636 17.7128 11.9396C17.4888 11.6953 17.2139 11.5731 16.8881 11.5731H1.09606V9.00727L16.8881 9.03782C17.5601 9.03782 18.171 9.21091 18.7208 9.55709C19.291 9.88291 19.739 10.3309 20.0648 10.9011C20.411 11.4509 20.5841 12.072 20.5841 12.7644V18.6902C20.5841 19.3622 20.411 19.9833 20.0648 20.5535C19.739 21.1033 19.291 21.5513 18.7208 21.8975C18.171 22.2233 17.5601 22.3862 16.8881 22.3862H8.5186C8.19278 22.3862 7.90769 22.5084 7.66333 22.7527C7.43933 22.9767 7.32733 23.2516 7.32733 23.5775V24.8604H4.8226ZM4.8226 31V28.4953H7.32733V31H4.8226Z" fill="white"/>
</svg>
