<svg width="25" height="46" viewBox="0 0 25 46" fill="none" xmlns="http://www.w3.org/2000/svg">
<path d="M5.74119 30.0718V28.5445C5.74119 27.7203 5.93513 26.9809 6.32301 26.3263C6.73513 25.6475 7.26847 25.1142 7.92301 24.7263C8.6018 24.3384 9.34119 24.1445 10.1412 24.1445H20.1048C20.4927 24.1445 20.82 24.0112 21.0867 23.7445C21.3776 23.4536 21.523 23.1142 21.523 22.7263V15.6718C21.523 15.2839 21.3776 14.9566 21.0867 14.6899C20.82 14.399 20.4927 14.2536 20.1048 14.2536H1.30483V11.199L20.1048 11.2354C20.9048 11.2354 21.6321 11.4415 22.2867 11.8536C22.9654 12.2415 23.4988 12.7748 23.8866 13.4536C24.2988 14.1081 24.5048 14.8475 24.5048 15.6718V22.7263C24.5048 23.5263 24.2988 24.2657 23.8866 24.9445C23.4988 25.599 22.9654 26.1324 22.2867 26.5445C21.6321 26.9324 20.9048 27.1263 20.1048 27.1263H10.1412C9.75332 27.1263 9.41392 27.2718 9.12301 27.5627C8.85635 27.8293 8.72301 28.1566 8.72301 28.5445V30.0718H5.74119ZM5.74119 37.3809V34.399H8.72301V37.3809H5.74119Z" fill="#FE8606"/>
</svg>
