<svg width="26" height="25" viewBox="0 0 26 25" fill="none" xmlns="http://www.w3.org/2000/svg">
<path d="M23.4702 19.4779V20.4779H25.0882L24.3646 19.0307L23.4702 19.4779ZM2.35254 19.4779L1.45811 19.0307L0.734505 20.4779H2.35254V19.4779ZM4.99224 14.1985L5.88667 14.6457L5.99224 14.4346V14.1985H4.99224ZM20.8305 14.1985H19.8305V14.4346L19.9361 14.6457L20.8305 14.1985ZM23.4702 18.4779H2.35254V20.4779H23.4702V18.4779ZM3.24697 19.9252L5.88667 14.6457L4.09782 13.7513L1.45811 19.0307L3.24697 19.9252ZM5.99224 14.1985V8.91912H3.99224V14.1985H5.99224ZM19.8305 8.91911V14.1985H21.8305V8.91911H19.8305ZM19.9361 14.6457L22.5758 19.9252L24.3646 19.0307L21.7249 13.7513L19.9361 14.6457ZM7.9518 19.4779C7.9518 22.217 10.1723 24.4375 12.9114 24.4375V22.4375C11.2768 22.4375 9.9518 21.1125 9.9518 19.4779H7.9518ZM5.99224 8.91912C5.99224 5.0978 9.09004 2 12.9114 2V0C7.98547 0 3.99224 3.99323 3.99224 8.91912H5.99224ZM15.8709 19.4779C15.8709 21.1125 14.5459 22.4375 12.9114 22.4375V24.4375C15.6505 24.4375 17.8709 22.217 17.8709 19.4779H15.8709ZM21.8305 8.91911C21.8305 3.99322 17.8373 0 12.9114 0V2C16.7327 2 19.8305 5.09779 19.8305 8.91911H21.8305Z" fill="white"/>
</svg>
