<svg width="28" height="29" viewBox="0 0 28 29" fill="none" xmlns="http://www.w3.org/2000/svg">
<path d="M25.8235 22.8456V23.9737H27.6489L26.8326 22.3411L25.8235 22.8456ZM2 22.8456L0.990966 22.3411L0.174641 23.9737H2V22.8456ZM4.97794 16.8897L5.98697 17.3942L6.10608 17.156V16.8897H4.97794ZM22.8456 16.8897H21.7175V17.156L21.8366 17.3942L22.8456 16.8897ZM25.8235 21.7175H2V23.9737H25.8235V21.7175ZM3.00903 23.3501L5.98697 17.3942L3.96891 16.3852L0.990966 22.3411L3.00903 23.3501ZM6.10608 16.8897V10.9338H3.84981V16.8897H6.10608ZM21.7175 10.9338V16.8897H23.9737V10.9338H21.7175ZM21.8366 17.3942L24.8145 23.3501L26.8326 22.3411L23.8546 16.3852L21.8366 17.3942ZM8.31672 22.8456C8.31672 25.9356 10.8217 28.4406 13.9118 28.4406V26.1844C12.0678 26.1844 10.573 24.6895 10.573 22.8456H8.31672ZM6.10608 10.9338C6.10608 6.62286 9.6008 3.12813 13.9118 3.12813V0.871866C8.3547 0.871866 3.84981 5.37676 3.84981 10.9338H6.10608ZM17.2505 22.8456C17.2505 24.6895 15.7557 26.1844 13.9118 26.1844V28.4406C17.0018 28.4406 19.5068 25.9356 19.5068 22.8456H17.2505ZM23.9737 10.9338C23.9737 5.37676 19.4688 0.871866 13.9118 0.871866V3.12813C18.2227 3.12813 21.7175 6.62286 21.7175 10.9338H23.9737Z" fill="#FE8606"/>
</svg>
