<svg width="23" height="24" viewBox="0 0 23 24" fill="none" xmlns="http://www.w3.org/2000/svg">
<path fill-rule="evenodd" clip-rule="evenodd" d="M2.33272 10.8226C2.33272 6.35597 5.95363 2.73506 10.4202 2.73506C14.8869 2.73506 18.5078 6.35597 18.5078 10.8226C18.5078 15.2892 14.8869 18.9101 10.4202 18.9101C5.95363 18.9101 2.33272 15.2892 2.33272 10.8226ZM10.4202 0.803711C4.88697 0.803711 0.401367 5.28932 0.401367 10.8226C0.401367 16.3559 4.88697 20.8415 10.4202 20.8415C12.839 20.8415 15.0576 19.9843 16.7889 18.5572L21.3512 23.1195C21.7283 23.4967 22.3398 23.4967 22.7169 23.1195C23.094 22.7424 23.094 22.131 22.7169 21.7539L18.1546 17.1916C19.5819 15.4603 20.4391 13.2415 20.4391 10.8226C20.4391 5.28932 15.9535 0.803711 10.4202 0.803711Z" fill="#FE8606"/>
</svg>
