<svg width="1032" height="983" viewBox="0 0 1032 983" fill="none" xmlns="http://www.w3.org/2000/svg">
<g filter="url(#filter0_dddddd_453_945)">
<path d="M462.265 489C461.385 489 460.572 488.787 459.825 488.36C459.105 487.933 458.532 487.36 458.105 486.64C457.678 485.893 457.465 485.08 457.465 484.2V483.08H460.705V484.2C460.705 484.627 460.852 485 461.145 485.32C461.465 485.613 461.838 485.76 462.265 485.76H481.465C481.892 485.76 482.252 485.613 482.545 485.32C482.865 485 483.025 484.627 483.025 484.2V477.76C483.025 477.333 482.865 476.973 482.545 476.68C482.252 476.387 481.892 476.24 481.465 476.24H462.265C461.385 476.24 460.572 476.027 459.825 475.6C459.105 475.147 458.532 474.56 458.105 473.84C457.678 473.12 457.465 472.32 457.465 471.44V465C457.465 464.12 457.678 463.32 458.105 462.6C458.532 461.853 459.105 461.267 459.825 460.84C460.572 460.413 461.385 460.2 462.265 460.2H481.465C482.345 460.2 483.145 460.413 483.865 460.84C484.612 461.267 485.198 461.853 485.625 462.6C486.052 463.32 486.265 464.12 486.265 465V466.12H483.025V465C483.025 464.573 482.865 464.213 482.545 463.92C482.252 463.6 481.892 463.44 481.465 463.44H462.265C461.838 463.44 461.465 463.6 461.145 463.92C460.852 464.213 460.705 464.573 460.705 465V471.44C460.705 471.867 460.852 472.227 461.145 472.52C461.465 472.813 461.838 472.96 462.265 472.96H481.465C482.345 472.96 483.145 473.187 483.865 473.64C484.612 474.067 485.198 474.64 485.625 475.36C486.052 476.08 486.265 476.88 486.265 477.76V484.2C486.265 485.08 486.052 485.893 485.625 486.64C485.198 487.36 484.612 487.933 483.865 488.36C483.145 488.787 482.345 489 481.465 489H462.265ZM496.876 489C495.969 489 495.142 488.787 494.396 488.36C493.676 487.907 493.102 487.32 492.676 486.6C492.249 485.853 492.036 485.04 492.036 484.16V458.2H495.316V465.8H505.356V469.08H495.316V484.16C495.316 484.587 495.462 484.96 495.756 485.28C496.076 485.573 496.449 485.72 496.876 485.72H505.356V489H496.876ZM514.842 489C513.962 489 513.149 488.787 512.402 488.36C511.682 487.907 511.095 487.32 510.642 486.6C510.215 485.853 510.002 485.04 510.002 484.16V475.76H530.322V470.64C530.322 470.213 530.162 469.853 529.842 469.56C529.549 469.24 529.189 469.08 528.762 469.08H510.002V465.8H528.762C529.669 465.8 530.482 466.027 531.202 466.48C531.949 466.907 532.535 467.493 532.962 468.24C533.415 468.96 533.642 469.76 533.642 470.64V489H514.842ZM514.842 485.72H530.322V479.04H513.282V484.16C513.282 484.587 513.429 484.96 513.722 485.28C514.042 485.573 514.415 485.72 514.842 485.72ZM539.18 489V470.64C539.18 469.76 539.393 468.96 539.82 468.24C540.273 467.493 540.86 466.907 541.58 466.48C542.327 466.027 543.14 465.8 544.02 465.8H557.06V469.08H544.02C543.593 469.08 543.22 469.24 542.9 469.56C542.607 469.853 542.46 470.213 542.46 470.64V489H539.18ZM566.129 489C565.222 489 564.395 488.787 563.649 488.36C562.929 487.907 562.355 487.32 561.929 486.6C561.502 485.853 561.289 485.04 561.289 484.16V458.2H564.569V465.8H574.609V469.08H564.569V484.16C564.569 484.587 564.715 484.96 565.009 485.28C565.329 485.573 565.702 485.72 566.129 485.72H574.609V489H566.129Z" fill="white"/>
<path d="M524.5 524L515.5 515L506.5 524" stroke="white" stroke-width="2.7" stroke-linecap="round" stroke-linejoin="round"/>
</g>
<defs>
<filter id="filter0_dddddd_453_945" x="-2.38" y="-8.38" width="1035.76" height="991.11" filterUnits="userSpaceOnUse" color-interpolation-filters="sRGB">
<feFlood flood-opacity="0" result="BackgroundImageFix"/>
<feColorMatrix in="SourceAlpha" type="matrix" values="0 0 0 0 0 0 0 0 0 0 0 0 0 0 0 0 0 0 127 0" result="hardAlpha"/>
<feOffset/>
<feGaussianBlur stdDeviation="5.445"/>
<feColorMatrix type="matrix" values="0 0 0 0 1 0 0 0 0 1 0 0 0 0 1 0 0 0 1 0"/>
<feBlend mode="normal" in2="BackgroundImageFix" result="effect1_dropShadow_453_945"/>
<feColorMatrix in="SourceAlpha" type="matrix" values="0 0 0 0 0 0 0 0 0 0 0 0 0 0 0 0 0 0 127 0" result="hardAlpha"/>
<feOffset/>
<feGaussianBlur stdDeviation="10.89"/>
<feColorMatrix type="matrix" values="0 0 0 0 1 0 0 0 0 1 0 0 0 0 1 0 0 0 1 0"/>
<feBlend mode="normal" in2="effect1_dropShadow_453_945" result="effect2_dropShadow_453_945"/>
<feColorMatrix in="SourceAlpha" type="matrix" values="0 0 0 0 0 0 0 0 0 0 0 0 0 0 0 0 0 0 127 0" result="hardAlpha"/>
<feOffset/>
<feGaussianBlur stdDeviation="38.115"/>
<feColorMatrix type="matrix" values="0 0 0 0 1 0 0 0 0 1 0 0 0 0 1 0 0 0 1 0"/>
<feBlend mode="normal" in2="effect2_dropShadow_453_945" result="effect3_dropShadow_453_945"/>
<feColorMatrix in="SourceAlpha" type="matrix" values="0 0 0 0 0 0 0 0 0 0 0 0 0 0 0 0 0 0 127 0" result="hardAlpha"/>
<feOffset/>
<feGaussianBlur stdDeviation="76.23"/>
<feColorMatrix type="matrix" values="0 0 0 0 1 0 0 0 0 1 0 0 0 0 1 0 0 0 1 0"/>
<feBlend mode="normal" in2="effect3_dropShadow_453_945" result="effect4_dropShadow_453_945"/>
<feColorMatrix in="SourceAlpha" type="matrix" values="0 0 0 0 0 0 0 0 0 0 0 0 0 0 0 0 0 0 127 0" result="hardAlpha"/>
<feOffset/>
<feGaussianBlur stdDeviation="130.68"/>
<feColorMatrix type="matrix" values="0 0 0 0 1 0 0 0 0 1 0 0 0 0 1 0 0 0 1 0"/>
<feBlend mode="normal" in2="effect4_dropShadow_453_945" result="effect5_dropShadow_453_945"/>
<feColorMatrix in="SourceAlpha" type="matrix" values="0 0 0 0 0 0 0 0 0 0 0 0 0 0 0 0 0 0 127 0" result="hardAlpha"/>
<feOffset/>
<feGaussianBlur stdDeviation="228.69"/>
<feColorMatrix type="matrix" values="0 0 0 0 1 0 0 0 0 1 0 0 0 0 1 0 0 0 1 0"/>
<feBlend mode="normal" in2="effect5_dropShadow_453_945" result="effect6_dropShadow_453_945"/>
<feBlend mode="normal" in="SourceGraphic" in2="effect6_dropShadow_453_945" result="shape"/>
</filter>
</defs>
</svg>
