<svg id="Layer_1" data-name="Layer 1" xmlns="http://www.w3.org/2000/svg" xmlns:xlink="http://www.w3.org/1999/xlink" viewBox="0 0 1734 875"><defs><style>.cls-1,.cls-18,.cls-2{fill:none;}.cls-18,.cls-2{stroke-miterlimit:10;}.cls-2{stroke-width:0.09px;opacity:0.3;stroke:url(#radial-gradient);}.cls-3{opacity:0.05;}.cls-10,.cls-11,.cls-14,.cls-4,.cls-6,.cls-7,.cls-8,.cls-9{fill:#fff;}.cls-11,.cls-12,.cls-13,.cls-5{opacity:0.1;}.cls-10,.cls-11,.cls-12,.cls-13,.cls-6,.cls-7,.cls-8,.cls-9{isolation:isolate;}.cls-6{opacity:0.4;}.cls-7{opacity:0.45;}.cls-8{opacity:0.5;}.cls-9{opacity:0.2;}.cls-10{opacity:0.15;}.cls-12,.cls-13{fill-rule:evenodd;}.cls-12{fill:url(#linear-gradient);}.cls-13{fill:url(#linear-gradient-2);}.cls-14{fill-opacity:0.1;}.cls-15{clip-path:url(#clip-path);}.cls-16{fill:url(#radial-gradient-2);}.cls-17{fill:url(#radial-gradient-3);}.cls-18{stroke-width:12px;stroke:url(#radial-gradient-4);}.cls-19{fill:url(#linear-gradient-3);}</style><radialGradient id="radial-gradient" cx="861.83" cy="441.54" r="611.44" gradientUnits="userSpaceOnUse"><stop offset="0" stop-color="#fff"/><stop offset="0.12" stop-color="#fbfbfb" stop-opacity="0.98"/><stop offset="0.25" stop-color="#f0f0f0" stop-opacity="0.94"/><stop offset="0.37" stop-color="#ddd" stop-opacity="0.85"/><stop offset="0.5" stop-color="#c3c3c3" stop-opacity="0.74"/><stop offset="0.63" stop-color="#a2a2a2" stop-opacity="0.59"/><stop offset="0.76" stop-color="#787878" stop-opacity="0.41"/><stop offset="0.89" stop-color="#494949" stop-opacity="0.21"/><stop offset="1" stop-color="#191919" stop-opacity="0"/></radialGradient><linearGradient id="linear-gradient" x1="61.39" y1="722.82" x2="348.27" y2="722.82" gradientTransform="matrix(1, 0, 0, -1, 0, 876)" gradientUnits="userSpaceOnUse"><stop offset="0" stop-color="#868686"/><stop offset="0.63" stop-color="#5d5d5d"/><stop offset="1" stop-color="#323232"/></linearGradient><linearGradient id="linear-gradient-2" x1="1672.61" y1="722.82" x2="1385.73" y2="722.82" xlink:href="#linear-gradient"/><clipPath id="clip-path"><rect class="cls-1" y="2" width="1734" height="873"/></clipPath><radialGradient id="radial-gradient-2" cx="326.42" cy="977.78" r="1" gradientTransform="matrix(566.28, 0, 0, -468.11, -183974.03, 457933.83)" gradientUnits="userSpaceOnUse"><stop offset="0" stop-color="#fff"/><stop offset="0.1" stop-color="#fafafa" stop-opacity="0.98"/><stop offset="0.22" stop-color="#ededed" stop-opacity="0.92"/><stop offset="0.36" stop-color="#d6d6d6" stop-opacity="0.82"/><stop offset="0.5" stop-color="#b7b7b7" stop-opacity="0.69"/><stop offset="0.65" stop-color="#8f8f8f" stop-opacity="0.51"/><stop offset="0.81" stop-color="#5e5e5e" stop-opacity="0.3"/><stop offset="0.97" stop-color="#252525" stop-opacity="0.05"/><stop offset="1" stop-color="#191919" stop-opacity="0"/></radialGradient><radialGradient id="radial-gradient-3" cx="326.42" cy="977.78" r="1" gradientTransform="matrix(561.26, 0, 0, -463.97, -182334.78, 454333.33)" gradientUnits="userSpaceOnUse"><stop offset="0" stop-color="#fff"/><stop offset="0.05" stop-color="#f2f2f2" stop-opacity="0.94"/><stop offset="0.15" stop-color="#d1d1d1" stop-opacity="0.8"/><stop offset="0.29" stop-color="#9a9a9a" stop-opacity="0.56"/><stop offset="0.45" stop-color="#505050" stop-opacity="0.24"/><stop offset="0.56" stop-color="#191919" stop-opacity="0"/><stop offset="0.78" stop-color="#fff" stop-opacity="0.5"/><stop offset="1" stop-color="#fff" stop-opacity="0"/></radialGradient><radialGradient id="radial-gradient-4" cx="326.44" cy="977.78" r="1" gradientTransform="matrix(572.47, 0, 0, -473.23, -185998.81, 462989.04)" gradientUnits="userSpaceOnUse"><stop offset="0" stop-color="#fff"/><stop offset="0.03" stop-color="#e7e7e7" stop-opacity="0.89"/><stop offset="0.1" stop-color="#bcbcbc" stop-opacity="0.71"/><stop offset="0.17" stop-color="#959595" stop-opacity="0.54"/><stop offset="0.24" stop-color="#747474" stop-opacity="0.39"/><stop offset="0.32" stop-color="#575757" stop-opacity="0.27"/><stop offset="0.41" stop-color="#404040" stop-opacity="0.17"/><stop offset="0.51" stop-color="#2f2f2f" stop-opacity="0.09"/><stop offset="0.62" stop-color="#222" stop-opacity="0.04"/><stop offset="0.75" stop-color="#1b1b1b" stop-opacity="0.01"/><stop offset="1" stop-color="#191919" stop-opacity="0"/></radialGradient><linearGradient id="linear-gradient-3" x1="861.82" y1="50.49" x2="861.82" y2="822.13" gradientTransform="matrix(1, 0, 0, -1, 0, 876)" gradientUnits="userSpaceOnUse"><stop offset="0" stop-color="#fff" stop-opacity="0.05"/><stop offset="0.08" stop-color="#b5b5b5" stop-opacity="0"/><stop offset="0.32" stop-color="#3b3b3b" stop-opacity="0"/><stop offset="1" stop-color="#191919" stop-opacity="0"/></linearGradient></defs><path class="cls-2" d="M904.13,703.57q.68-11.22,1.37-22.87c1.34-21.89,2.81-45,4.43-69.76,1.63-25,3.41-51.55,5.33-80.16,2-28.84,4.06-59.72,6.33-93,2.27-33.53,4.71-69.52,7.33-108.36,2.62-39.05,5.42-81,8.39-126.18,3-45.38,6.15-94.06,9.49-146.44,0-.13,0-.26,0-.4m-435.5,766.7c-.63-1-1.28-1.94-1.93-2.91A411,411,0,0,0,479.25,781c-11.17-13-23.53-26.09-37.07-39.64s-28.4-27.69-44.37-42.53c-16.15-15-33.5-30.8-52-47.71C327,634,307.09,615.75,286,596c-21.33-19.91-43.87-41.35-67.6-64.65-23.9-23.47-49-48.83-75.29-76.45Q117,427.49,89.32,397M693.68,756c-.55-2-1.11-3.94-1.68-5.92-5.23-18.29-11.1-37.3-17.63-57.38s-13.81-41.54-21.74-64.29c-8-23-16.69-47.39-26.1-73.64-9.5-26.48-19.73-54.82-30.7-85.4-11.06-30.79-22.88-63.86-35.49-99.57-12.67-35.92-26.14-74.53-40.42-116.2-14.35-41.84-29.51-86.78-45.51-135.21-.86-2.6-1.72-5.2-2.58-7.82m358,591.93q-.64-10.72-1.31-21.84c-1.34-21.89-2.81-45-4.43-69.76-1.63-25-3.41-51.55-5.33-80.16-2-28.84-4.06-59.72-6.33-93-2.27-33.53-4.71-69.52-7.33-108.36-2.62-39.05-5.42-81-8.39-126.18-3-45.38-6.15-94.06-9.49-146.44,0-.32-.05-.65-.07-1M1105.58,75l-.45,2.31c-9.89,51.06-19.25,98.49-28.09,142.69-8.8,44-17.09,84.85-24.88,122.85-7.74,37.8-15,72.81-21.75,105.43-6.73,32.4-13,62.44-18.77,90.49-5.75,27.82-11,53.69-15.91,78-4.81,24.08-9.21,46.6-13.19,67.93-2.47,13.24-4.78,26-6.94,38.42M1261.18,113.6c-.52,1.61-1.06,3.22-1.59,4.83-16,48.43-31.16,93.37-45.51,135.21-14.28,41.67-27.75,80.28-40.42,116.2-12.61,35.71-24.43,68.78-35.49,99.57-11,30.58-21.2,58.92-30.7,85.4-9.41,26.25-18.11,50.68-26.1,73.64-7.93,22.75-15.17,44.06-21.74,64.29s-12.4,39.09-17.63,57.38q-1.71,6-3.34,11.88m371-586.29c-.7,1.45-1.39,2.9-2.09,4.34-21.38,44.48-41.7,85.69-61,124-19.18,38.15-37.32,73.43-54.43,106.22-17,32.6-33,62.74-48,90.8-14.89,27.86-28.81,53.66-41.76,77.79-12.84,23.9-24.74,46.16-35.72,67.12-10.86,20.77-20.83,40.27-29.9,58.85s-17.15,36-24.43,52.94c-5.55,13-10.6,25.56-15.16,38m537.63-388q-22.48,24.61-43.93,47.11c-26.29,27.62-51.39,53-75.29,76.45-23.73,23.3-46.27,44.74-67.6,64.65-21.13,19.74-41.08,38-59.82,55.1-18.53,16.91-35.88,32.7-52,47.71-16,14.84-30.76,28.9-44.37,42.53S1265.92,768,1254.75,781a411,411,0,0,0-30.15,39.17c-.83,1.23-1.64,2.46-2.45,3.69m400-214.89-4.15,2.79c-25.68,17.18-50.25,32.87-73.67,47.42-23.17,14.39-45.21,27.67-66.06,40.15-20.56,12.31-40,23.85-58.15,34.93-17.93,10.93-34.68,21.41-50.21,31.75s-29.69,20.43-42.65,30.73a348.7,348.7,0,0,0-31.8,28.3c-1.26,1.28-2.5,2.56-3.72,3.86m157-33.71-2.55-1Q1408.1,779.08,1369.9,766q-39-13.37-78.08-24.65Q1253,730.16,1214.17,721q-38.65-9.1-77.35-16.18t-77.19-12.09q-38.54-5-77.09-8t-77-4q-38.5-1-77,0t-77,4q-38.55,3-77.09,8t-77.19,12.09q-38.7,7.06-77.35,16.18-38.85,9.13-77.65,20.34Q403.12,752.65,364.1,766q-39.48,13.51-78.88,29.18l-2.65,1.06h0m1300-108.08q-18.94-14.94-38.28-29Q1497.27,625,1448,596t-100.29-52.73q-51-23.74-103.55-42.21t-106-31.66q-53.49-13.2-107.76-21.11T921.59,437.75q-54.55-2.64-109.18,0T703.59,448.3q-54.21,7.92-107.76,21.11t-106,31.66q-52.46,18.46-103.55,42.21T286,596Q236.79,625,189.68,659.17q-22.69,16.49-44.83,34.2M1620.5,614c-.84-.75-1.67-1.49-2.51-2.21a1141.47,1141.47,0,0,0-211.36-147.62,1135.45,1135.45,0,0,0-964.84-53.87h0A1130.07,1130.07,0,0,0,218.36,531.36,1141.5,1141.5,0,0,0,116,611.75q-5.2,4.56-10.38,9.25M1634.86,492.49q-21.57-19.44-43.93-37.58a1123,1123,0,0,0-244.29-150.86,1142,1142,0,0,0-132.56-50.41A1159.4,1159.4,0,0,0,1077,220,1175.69,1175.69,0,0,0,657,220a1159.4,1159.4,0,0,0-137,33.62,1142,1142,0,0,0-132.56,50.41A1123,1123,0,0,0,143.07,454.91q-27.73,22.51-54.28,47M1491.27,226.26h0q-41-24.92-83.67-46.22a1174.43,1174.43,0,0,0-148-61.62,1202.69,1202.69,0,0,0-154.46-41.1,1237,1237,0,0,0-476.26,0,1206,1206,0,0,0-154.46,41.1,1175.92,1175.92,0,0,0-148,61.62,1142.65,1142.65,0,0,0-137.33,81h0l-1.59,1.09h0m134.78-90.75c1.39,2.91,2.77,5.79,4.16,8.67,21.38,44.48,41.7,85.69,61,124,19.18,38.15,37.32,73.42,54.43,106.21h0c17,32.6,33,62.74,48,90.8,14.89,27.86,28.81,53.66,41.76,77.79C544.4,602.76,556.3,625,567.28,646c10.86,20.77,20.83,40.27,29.9,58.85s17.15,36,24.43,52.94c4.94,11.53,9.49,22.79,13.64,33.9M575.49,813l0-.09c-7.18-14.8-15.41-29.64-24.68-44.85s-19.58-30.76-30.93-47-24-33.46-37.54-51.59c-13.72-18.31-28.53-37.69-44.44-58.47-16.07-21-33.27-43.44-51.6-67.67-18.47-24.44-38.1-50.7-58.88-79.15-20.91-28.64-43-59.5-66.25-92.95s-47.83-69.7-73.52-108.85a2.43,2.43,0,0,0-.14-.2h0m1303.81-35.85s0,0,0,0m47.39,510.8q-29.9-19.83-60.42-37.76-44.44-26.13-90-48.21T1296.15,611q-46.47-18.06-93.71-32.09t-95-24.05q-47.71-10-95.83-16t-96.38-8q-48.24-2-96.52,0t-96.38,8q-48.09,6-95.83,16t-95,24.05q-47.22,14-93.71,32.09t-92.07,40.16q-45.57,22.08-90,48.21Q222.23,719,189.44,741m66.28,43.41.05,0q15.25,5.34,29.45,10.75c10.2,3.91,20,7.87,29.31,12,0,0,0,0,0,0m25,6.48q33.69-9,67.24-16.91,36.31-8.55,72.5-15.74,35.82-7.14,71.51-13,35.47-5.77,70.85-10.27T692,750.12q5.91-.54,11.82-1M575.49,813l-.7.07h0q-32.61,3.19-65.37,7.11-20.56,2.45-41.19,5.18h0m823.56,3.54q-12.39-1.75-24.75-3.4h-.06q-21.2-2.82-42.32-5.33-33.12-4-66.09-7.18-8-.78-15.94-1.52h0M98.88,600.18q8.66,5.9,17.13,11.57c25.68,17.18,50.25,32.87,73.67,47.42,23.17,14.39,45.21,27.67,66.06,40.15,20.56,12.31,40,23.85,58.15,34.93,17.93,10.93,34.68,21.41,50.21,31.75s29.69,20.43,42.65,30.73a346.42,346.42,0,0,1,32.12,28.63M628.08,73.27c.26,1.36.53,2.71.79,4.06C638.76,128.39,648.12,175.82,657,220c8.8,44,17.09,84.85,24.88,122.85,7.74,37.8,15,72.81,21.75,105.43,6.73,32.4,13,62.44,18.77,90.49,5.75,27.82,11,53.69,15.91,78,4.81,24.08,9.21,46.6,13.19,67.93q3.28,17.63,6.2,34.23m632,93.42h0q-31.26-8.31-62.4-15.62-36.32-8.55-72.5-15.74-35.82-7.14-71.51-13-35.48-5.77-70.85-10.27T1042,750.12q-11.79-1.08-23.58-2m474.95,22.36q-36.42-19.28-73.26-36.23-41.71-19.2-83.92-35.43-42-16.17-84.48-29.4t-85-23.44q-42.56-10.23-85.35-17.53t-85.64-11.68q-42.86-4.38-85.8-5.83t-85.86,0q-42.93,1.45-85.8,5.83t-85.64,11.68q-42.78,7.29-85.35,17.53t-85,23.44q-42.43,13.23-84.48,29.4t-83.92,35.43q-39.6,18.22-78.72,39.13M1542.51,268.25c-24.28,36.88-47.49,71.08-69.63,102.93-23.26,33.45-45.34,64.31-66.25,92.95-20.78,28.45-40.41,54.71-58.88,79.15-18.33,24.23-35.53,46.67-51.6,67.67-15.91,20.78-30.72,40.16-44.44,58.47-13.58,18.13-26.09,35.21-37.54,51.59s-21.66,31.83-30.93,47-17.53,30.11-24.73,44.94l-1,2"/><g class="cls-3"><path class="cls-4" d="M1492.08,359.48c2.22,2.17,4.25,4.45,6.35,6.72l3.16,3.44c1,1.16,2.12,2.31,3.11,3.51l2.94,8.94.72,2.24.66,2.26,1.3,4.52c1.84,6,3.21,12.12,4.76,18.2l1.94,9.21c.31,1.53.66,3.06.94,4.61l.79,4.63c.51,3.1,1.11,6.18,1.54,9.29l1.24,9.33c-3.06,3.27-6.35,6.52-9.57,9.62l.65,6.88c.17,2.3.27,4.6.41,6.9l.39,6.9.13,6.92,4.52,2.81-4.43,2.91c0,4.7-.14,9.41-.25,14.11l-.39,7-.19,3.51-.1,1.76-.16,1.76q4.88,4.59,9.72,9.44l-.21,2.35-.3,2.33-.59,4.67c-.41,3.11-.75,6.22-1.31,9.31l-1.54,9.28-1.85,9.23a345.7,345.7,0,0,1-9.69,36.35l-3,3.58-3.11,3.49c-2.08,2.3-4.12,4.6-6.2,6.84q-8.21,16.47-17.88,31.92-9.83,15.35-20.93,29.56a352,352,0,0,0,20.17-36.09c1.51-3.11,3-6.2,4.37-9.38l2.08-4.73c.7-1.58,1.4-3.15,2-4.76l3.81-9.61,3.48-9.74a355,355,0,0,0,11-39.85c.67-3.38,1.41-6.76,2-10.15l1.68-10.2c.92-6.83,1.87-13.66,2.4-20.54.18-2.13.43-4.25.55-6.37l.62-11.43.22-11.43c.06-1.7,0-3.39,0-5.09l-.09-5.07c-.05-1.87,0-3.73-.14-5.58l-.32-5.58-.31-5.57c-.1-1.85-.33-3.7-.51-5.56l-.65-6.92a343.64,343.64,0,0,0-55.87-153.47c7.53,9.34,14.78,19,21.47,29.17,1.69,2.51,3.24,5.13,4.88,7.69l2.43,3.88,2.29,3.95c1.51,2.64,3.08,5.27,4.56,8Z"/></g><g class="cls-3"><path class="cls-4" d="M241.92,359.48c-2.22,2.17-4.25,4.45-6.35,6.72l-3.16,3.44c-1,1.16-2.12,2.31-3.11,3.51l-2.94,8.94-.73,2.23-.65,2.26-1.3,4.52c-1.84,6-3.21,12.13-4.76,18.21L217,418.52c-.31,1.53-.66,3.06-.94,4.6l-.8,4.63c-.5,3.1-1.1,6.18-1.54,9.29l-1.23,9.33c3.06,3.27,6.35,6.52,9.57,9.62l-.65,6.88c-.17,2.3-.27,4.6-.41,6.9l-.39,6.9-.13,6.92-4.52,2.81,4.43,2.91c0,4.7.14,9.41.25,14.11l.38,7,.2,3.51.09,1.76.17,1.76q-4.87,4.59-9.72,9.44l.21,2.35.29,2.33.6,4.67c.41,3.11.75,6.22,1.31,9.31l1.54,9.28,1.85,9.23a345.7,345.7,0,0,0,9.69,36.35l3,3.58,3.12,3.48c2.07,2.31,4.12,4.61,6.19,6.85q8.22,16.47,17.88,31.92,9.83,15.35,20.93,29.56a353.9,353.9,0,0,1-20.17-36.09c-1.5-3.11-3-6.2-4.37-9.38l-2.08-4.73c-.69-1.58-1.4-3.15-2-4.76l-3.81-9.61-3.48-9.74a355,355,0,0,1-11-39.85c-.66-3.38-1.4-6.76-2-10.15l-1.72-10.15c-.92-6.83-1.86-13.66-2.4-20.54-.18-2.12-.42-4.24-.54-6.37L224.14,503l-.22-11.44c-.06-1.69,0-3.39,0-5.08l.09-5.08c0-1.86,0-3.72.15-5.58l.31-5.57.32-5.57c.09-1.86.32-3.71.5-5.56l.65-6.92a343.85,343.85,0,0,1,55.87-153.48c-7.53,9.35-14.78,19-21.46,29.18-1.69,2.51-3.25,5.12-4.89,7.69l-2.43,3.87-2.29,3.95c-1.5,2.65-3.07,5.27-4.55,7.95Z"/></g><g class="cls-5"><path class="cls-6" d="M1255.22,466.87h15.41l11.79,20.42-11.79,20.42h-15.41L1267,487.29Z"/><path class="cls-7" d="M1278.8,466.87h15.41l11.8,20.42-11.8,20.42H1278.8l11.8-20.42Z"/><path class="cls-8" d="M1302.39,466.87h15.41l11.79,20.42-11.79,20.42h-15.41l11.79-20.42Z"/><path class="cls-9" d="M1326,466.87h15.41l11.79,20.42-11.79,20.42H1326l11.79-20.42Z"/><path class="cls-10" d="M1349.65,466.87h15.42l11.79,20.42-11.79,20.42h-15.42l11.8-20.42Z"/><path class="cls-11" d="M1373.24,466.87h15.41l11.79,20.42-11.79,20.42h-15.41L1385,487.29Z"/></g><g class="cls-5"><path class="cls-6" d="M534.71,466.87H519.3l-11.79,20.42,11.79,20.42h15.41l-11.8-20.42Z"/><path class="cls-7" d="M511.12,466.87H495.71l-11.79,20.42,11.79,20.42h15.41l-11.79-20.42Z"/><path class="cls-8" d="M487.54,466.87H472.13l-11.79,20.42,11.79,20.42h15.41l-11.79-20.42Z"/><path class="cls-9" d="M464,466.87H448.55l-11.79,20.42,11.79,20.42H464l-11.79-20.42Z"/><path class="cls-10" d="M440.27,466.87H424.86l-11.79,20.42,11.79,20.42h15.41l-11.79-20.42Z"/><path class="cls-11" d="M416.69,466.87H401.28l-11.79,20.42,11.79,20.42h15.41L404.9,487.29Z"/></g><path class="cls-12" d="M321.56,112.6,236.11,198a2.45,2.45,0,0,1-.81.54,2.42,2.42,0,0,1-1,.19H61.39v-5h153.2L300,108.32a2.54,2.54,0,0,1,1.77-.74h39.94l6.52,4a2.53,2.53,0,0,1-.88.74,2.56,2.56,0,0,1-1.12.26Z"/><path class="cls-13" d="M1412.44,112.6,1497.89,198a2.45,2.45,0,0,0,.81.54,2.42,2.42,0,0,0,1,.19h172.95v-5h-153.2L1434,108.32a2.54,2.54,0,0,0-1.77-.74h-39.94l-6.52,4a2.53,2.53,0,0,0,.88.74,2.56,2.56,0,0,0,1.12.26Z"/><path class="cls-14" d="M842.64,141h49.72L867.5,165Z"/><g class="cls-15"><rect class="cls-1" x="2" y="-28" width="1730" height="870"/><path class="cls-16" d="M98.51,397.19C161,241,345.73,144.17,526.66,95.06c90.23-24.21,184.55-37.92,279.22-42.23,119-5.35,239.21,3.63,354.52,28.63,167.37,37,334,108.28,433.32,229.26,21.6,26.74,39,55.82,50.85,86.46-18.23-45.82-48.92-87.84-87-124.21C1441.89,163.81,1272.2,102,1102.9,73.09,993.57,54.7,880.9,50,769.78,57.7,687.69,63.55,606,76.5,527.58,97.38,346.91,146.07,162.44,241.85,98.51,397.19Z"/><path class="cls-17" d="M98.51,527.65c.84,87.4,45.48,176.16,128.11,232.07,49.18,33.55,110.58,53.4,173.58,60.2,3.54.43,8.23.84,11.84,1.18,4.51.41,11.29.89,15.83,1.15,3,.14,7,.35,9.92.5,3.85.09,10.12.35,13.9.37,76.22.86,152.22-7.58,215-45.93,32.43-19.15,60.27-43.76,96-59a223.74,223.74,0,0,1,45.12-13.83c31.28-6,63.81-6.79,95.68-4.35,23.94,2,47.76,6.72,69.57,15.24,41.53,15.79,72.31,44.78,109.72,65.69,48.14,27.87,106.84,39,164.82,41.47,18.48.82,37.14,1,55.64.39,48.89-1.74,97.83-10,142.46-26.84,105.18-38.67,174-123.4,193.06-215.86a260.55,260.55,0,0,0,5.75-52.43,270,270,0,0,1-20.86,103.61c-48,115.28-160,184.08-306.31,193.11l-12,.64-12,.38a682.38,682.38,0,0,1-77.81-2.85C1168,818.05,1120.68,806,1081,783.18c-35.24-19.59-64.27-46.32-102.21-62.54-23.41-10.11-49.36-15.74-75.59-17.84-39.26-2.9-80-1.33-117.27,9.92a216.67,216.67,0,0,0-21.67,7.92c-42.64,18.33-74.35,49.69-115.73,69.67-56.39,28.37-124,35.46-188.92,35.22l-4,0-4,0h-2l-2-.06-8-.26-2-.06-2-.1c-49.18-2.24-98.3-11.12-142.92-28.64C169.24,749.07,98.06,637.9,98.48,527.68Z"/><path class="cls-18" d="M98.51,451.35c70.92-187.06,321.38-293.89,540-331,172.28-29.2,353.1-25.89,523.23,11.15,150.09,33.43,296.92,94.36,398.49,193.75,37.54,37,67.53,79.73,84.39,126.07a323.29,323.29,0,0,0-18.06-36.16l-1.62-2.69-3.26-5.37c-1.82-3-4.09-6.3-6-9.28-1.82-2.55-4.52-6.64-6.32-9.12-.4-.58-5-6.74-5.67-7.69-127.48-165.26-389-245.62-616.4-263.53-209.4-16.43-431.69,10.63-618,93.78C251.46,264.29,143.44,344.37,98.51,451.35Z"/><path class="cls-19" d="M88.79,528.81c0,127.77,101.47,296.7,363.19,296.7s217.63-124.23,409.8-124.25h0c192.22,0,148.13,124.25,409.85,124.25s363.19-168.93,363.19-296.7V398.34c-76.71-196.9-393.68-344.47-773-344.47s-696.33,147.57-773,344.47Z"/></g></svg>