<svg width="24" height="24" viewBox="0 0 24 24" fill="none" xmlns="http://www.w3.org/2000/svg">
<path fill-rule="evenodd" clip-rule="evenodd" d="M2 10.375C2 5.74962 5.74962 2 10.375 2C15.0004 2 18.75 5.74962 18.75 10.375C18.75 15.0004 15.0004 18.75 10.375 18.75C5.74962 18.75 2 15.0004 2 10.375ZM10.375 0C4.64505 0 0 4.64505 0 10.375C0 16.105 4.64505 20.75 10.375 20.75C12.8798 20.75 15.1772 19.8624 16.97 18.3845L21.6945 23.109C22.085 23.4996 22.7182 23.4996 23.1087 23.109C23.4993 22.7185 23.4993 22.0854 23.1087 21.6948L18.3843 16.9703C19.8623 15.1775 20.75 12.8799 20.75 10.375C20.75 4.64505 16.105 0 10.375 0Z" fill="white"/>
</svg>
