<svg width="72" height="59" viewBox="0 0 72 59" fill="none" xmlns="http://www.w3.org/2000/svg">
<path opacity="0.01" d="M49.1788 15.5919H21.8287V42.9419H49.1788V15.5919Z" fill="black"/>
<path d="M32.4815 52.7996C32.4815 52.7996 31.5897 53.1078 25.8729 54.0931C25.7282 54.1179 25.5834 54.1428 25.4402 54.1663C22.2199 54.6876 19.4978 54.7702 17.7951 54.7499H17.7702C17.7168 54.7483 17.6612 54.7483 17.6068 54.7467C17.0448 54.7328 16.4814 54.7074 15.9166 54.6705C15.9009 54.6689 15.8931 54.6689 15.8931 54.6689C12.4435 54.4383 9.03696 53.772 5.75463 52.686C-0.29202 50.9817 -1.29895 47.4377 1.45448 45.3945C4.00706 43.5019 8.34167 42.0839 8.34167 42.0839L20.2272 37.8583C20.2039 38.2799 20.1925 38.7106 20.193 39.1502C20.193 41.343 20.3581 43.2575 20.6959 44.9602L13.3635 47.5844C11.0801 48.4046 10.7348 49.5595 12.5852 50.1634C14.4356 50.7673 17.7884 50.5993 20.0701 49.7804L20.2071 49.7307C20.2089 49.7291 20.211 49.728 20.2133 49.7275L20.232 49.7213L20.2646 49.7088L21.8957 49.1159C21.9347 49.102 21.9737 49.0891 22.014 49.0739C23.2934 48.6199 24.8452 48.0667 24.8452 48.0667L25.0383 49.1084L27.4103 47.3838L32.4815 52.7996Z" fill="url(#paint0_linear_71_216)"/>
<path d="M70.8643 47.6316C69.3654 49.52 65.6993 50.8685 65.6993 50.8685L48.5521 58.1988V50.7737L58.4879 46.2882C60.7718 45.4725 61.1179 44.3117 59.2672 43.7092C57.4163 43.0991 54.0667 43.2792 51.7887 44.094L48.5532 45.2342V39.0671C53.9789 38.483 60.599 39.1681 65.8091 41.1392C71.6974 43.0006 72.3611 45.7423 70.8643 47.6316Z" fill="url(#paint1_linear_71_216)"/>
<path d="M33.7233 48.1899C33.7887 49.0366 33.8301 50.0174 33.8301 51.152V55.4337C33.3368 55.2609 32.859 55.0835 32.3966 54.9059C32.3312 54.8811 32.2674 54.8562 32.2035 54.8314C32.1864 54.8234 32.1677 54.8172 32.1501 54.8095C32.102 54.7924 32.0769 54.7815 32.0769 54.7815C22.3703 50.9666 19.005 45.9907 19.005 35.6965C19.005 26.6553 23.6791 22.3153 30.1801 23.5533C30.1859 23.5536 30.1916 23.5547 30.1971 23.5565C30.2092 23.5576 30.2212 23.5597 30.2329 23.5626C30.6485 23.6428 31.0735 23.748 31.5046 23.8741C31.5513 23.8879 31.5994 23.9037 31.6509 23.9192C32.3606 24.1467 33.0569 24.4142 33.7364 24.7205V30.6117C33.7364 31.7586 33.6829 32.7313 33.5932 33.5531V33.5579C33.2243 36.9882 32.2626 37.8116 32.1894 37.8706L32.1878 37.8738H32.1846L24.1866 38.9761L32.1864 42.9154L32.188 42.9184C32.2682 42.9697 33.3694 43.7528 33.7211 48.1838C33.7212 48.186 33.722 48.1882 33.7233 48.1899ZM35.5272 -6.10352e-05V30.5203C35.5272 31.6565 35.5675 32.6386 35.634 33.4869C35.9887 37.9615 37.1078 38.7162 37.1685 38.7536C37.1701 38.7568 37.1717 38.7569 37.1717 38.7569L45.167 42.6946L37.1717 43.7982H37.1671V43.8011L37.1655 43.8027C37.0814 43.8711 36.129 44.7055 35.7617 48.1141C35.7617 48.1186 35.7617 48.1218 35.7601 48.1234C35.6728 48.9453 35.6183 49.9164 35.6183 51.0614V56.0026C35.9423 56.0913 36.2502 56.166 36.5226 56.2141C39.7897 57.0795 43.7538 57.79 48.5524 58.2002V3.81799L35.5272 -6.10352e-05Z" fill="url(#paint2_linear_71_216)"/>
<defs>
<linearGradient id="paint0_linear_71_216" x1="-9.05218e-05" y1="46.3053" x2="32.4815" y2="46.3053" gradientUnits="userSpaceOnUse">
<stop offset="0.01" stop-color="#4A298A"/>
<stop offset="1" stop-color="#42CAFD"/>
</linearGradient>
<linearGradient id="paint1_linear_71_216" x1="48.5532" y1="48.5317" x2="71.5467" y2="48.5317" gradientUnits="userSpaceOnUse">
<stop offset="0.01" stop-color="#4A298A"/>
<stop offset="1" stop-color="#42CAFD"/>
</linearGradient>
<linearGradient id="paint2_linear_71_216" x1="33.7794" y1="58.1994" x2="33.7794" y2="-6.10352e-05" gradientUnits="userSpaceOnUse">
<stop offset="0.01" stop-color="#FF3E1D"/>
<stop offset="0.21" stop-color="#FF421C"/>
<stop offset="0.42" stop-color="#FF4E18"/>
<stop offset="0.63" stop-color="#FF6212"/>
<stop offset="0.84" stop-color="#FE7E09"/>
<stop offset="1" stop-color="#FE9900"/>
</linearGradient>
</defs>
</svg>
